<svg id="Layer_1" data-name="Layer 1" xmlns="http://www.w3.org/2000/svg" viewBox="0 0 705.99 1168.01"><defs><style>.cls-1,.cls-2{font-size:1000px;font-family:GoogleSans-Bold, Google Sans;font-weight:700;}.cls-2{fill:#2a2abc;}.cls-3{fill:#131356;}.cls-4{fill:#191970;}</style></defs><title>Hash</title><text class="cls-1" transform="translate(0 883)">#</text><text class="cls-2" transform="translate(33 858)">#</text><polygon class="cls-3" points="253 174.34 220 198.34 196 357.67 225.33 357.67 253 174.34"/><polygon class="cls-3" points="110.33 357.33 77.33 381.67 61 484 94 459 110.33 357.33"/><polygon class="cls-4" points="94 459 61 484 176.75 484 165.75 564.25 194.75 564.5 210 459 94 459"/><polygon class="cls-3" points="81 564.34 47.67 589 30.67 691 64 666 81 564.34"/><polygon class="cls-4" points="64 666 30.67 691 145.5 690.75 117.75 883 151 857.75 179 666 64 666"/><polygon class="cls-3" points="151 857.75 117.75 883 227.75 883.25 260.75 857.75 151 857.75"/><polygon class="cls-4" points="290 665.75 286.25 690.75 368.75 691 339.75 882.75 373 858 402 666 290 665.75"/><polygon class="cls-3" points="373 858 339.75 882.75 450.96 883.04 483.83 857.85 373 858"/><polygon class="cls-3" points="441.67 198.67 475.33 174 448.33 357 418.67 357 441.67 198.67"/><polygon class="cls-4" points="314.97 481.73 401.66 482.24 389.64 566.13 418.8 566.13 435.17 456.92 318.04 456.67 314.97 481.73"/><polygon class="cls-4" points="543 458.88 539.25 483.88 624.75 484 657.88 459 543 458.88"/><polygon class="cls-4" points="513 666 509.13 691 595.88 691 628.88 665.88 513 666"/></svg>